<svg xmlns="http://www.w3.org/2000/svg" viewBox="0 0 800 800"><path d="M168.498,482.379 L184.274,147.533 L184.418,141.014 L183.898,113.157 L184.802,66.334 L185.360,59.839 L186.915,51.085 L188.066,48.369 L189.653,46.623 L191.713,45.471 L194.620,45.000 L197.509,45.592 L200.100,47.012 L202.348,48.940 L231.360,76.925 L234.201,79.052 L236.958,80.109 L240.496,80.316 L245.144,79.417 L284.134,67.052 L293.295,64.604 L297.966,63.789 L302.690,63.385 L307.431,63.396 L312.153,63.825 L321.517,65.332 L560.877,110.866 L584.165,115.336 L621.929,122.994 L627.635,124.575 L634.056,127.634 L636.585,129.168 L638.605,131.323 L640.025,133.916 L640.772,136.778 L640.926,139.734 L640.490,143.260 L639.292,147.846 L637.839,151.731 L635.670,155.945 L633.336,159.373 L630.570,162.462 L627.001,165.582 L613.805,174.637 L603.289,182.351 L594.396,189.263 L581.569,199.798 L567.594,212.624 L546.552,234.333 L539.646,242.461 L535.441,248.198 L532.552,252.683 L529.571,258.477 L523.381,274.514 L521.142,279.355 L517.969,284.353 L513.510,289.100 L509.310,292.382 L504.667,295.000 L499.678,296.878 L494.460,297.959 L489.728,298.228 L484.406,297.894 L458.098,293.482 L453.389,292.930 L449.242,292.824 L443.938,293.354 L438.190,294.786 L432.677,296.955 L427.490,299.816 L422.339,303.802 L417.938,308.606 L370.546,368.624 L348.998,395.416 L346.929,397.536 L344.545,399.290 L341.849,400.504 L339.519,400.908 L336.589,400.561 L333.929,399.284 L331.768,397.268 L330.153,394.790 L328.823,391.496 L327.587,386.308 L326.946,381.612 L326.968,377.466 L346.497,251.516 L352.948,212.926 L353.912,203.495 L353.860,199.940 L353.502,196.402 L352.636,191.741 L351.515,187.747 L350.041,183.869 L347.948,179.615 L345.771,176.084 L342.902,172.311 L340.492,169.696 L336.979,166.512 L319.200,151.733 L317.282,150.341 L315.184,149.243 L313.462,148.817 L312.278,148.808 L311.117,149.039 L309.515,149.798 L308.169,150.954 L307.126,152.390 L306.405,154.012 L305.986,155.739 L304.767,166.337 L300.486,193.868 L297.175,217.349 L295.002,237.983 L294.263,251.003 L281.012,556.615 L281.119,560.168 L281.649,563.081 L282.632,565.874 L284.366,568.974 L286.568,571.763 L289.178,574.174 L292.152,576.116 L295.954,577.769 L299.959,578.845 L305.807,579.806 L311.710,580.345 L317.636,580.440 L322.960,580.113 L328.830,579.296 L334.039,578.146 L339.157,576.641 L344.158,574.786 L349.011,572.572 L353.167,570.289 L358.190,567.142 L366.148,560.967 L372.594,554.846 L379.224,547.261 L384.925,538.956 L388.406,532.754 L391.439,526.321 L403.534,494.136 L406.042,488.118 L408.218,483.905 L410.698,479.864 L413.825,475.542 L416.866,471.905 L421.838,466.819 L427.215,462.166 L432.532,458.393 L438.199,455.174 L445.232,452.027 L451.401,449.919 L458.892,448.124 L465.937,447.158 L474.822,446.914 L482.499,447.541 L490.642,449.120 L498.516,451.726 L507.658,455.963 L557.558,480.769 L565.198,485.308 L571.649,490.519 L574.990,493.883 L577.668,497.052 L580.477,500.872 L582.961,504.910 L585.133,509.125 L586.918,513.517 L587.835,516.950 L588.065,519.900 L587.807,522.254 L586.960,525.090 L585.666,527.753 L583.719,530.728 L581.073,533.922 L577.761,537.316 L573.800,540.889 L570.096,543.851 L565.207,547.200 L559.590,550.511 L243.756,725.424 L191.494,753.406 L187.599,754.801 L185.835,755.000 L184.063,754.886 L181.248,753.990 L178.791,752.349 L176.444,749.689 L174.404,746.080 L164.804,724.398 L162.600,718.896 L160.062,710.377 L159.569,707.456 L159.166,702.731 L159.082,697.398 L160.412,655.328 L161.113,620.951 L163.853,567.074 L165.806,539.283 L168.498,482.379 Z" fill="none" stroke="#FFFFFF" stroke-width="24" stroke-linecap="round" stroke-linejoin="round"/></svg>
